<?xml version="1.0" encoding="UTF-8"?><svg id="Layer_2" xmlns="http://www.w3.org/2000/svg" viewBox="0 0 493.13 100"><defs><style>.cls-1{fill:#0f0f0f;}</style></defs><g id="Layer_1-2"><g><path class="cls-1" d="M38.8,0h12.33V69.77h-12.33v-5.64c-3.63,4.65-8.79,6.98-15.48,6.98s-11.93-2.44-16.49-7.31C2.28,58.92,0,52.95,0,45.87s2.28-13.04,6.83-17.92c4.56-4.87,10.05-7.31,16.49-7.31s11.85,2.33,15.48,6.98V0ZM16.1,55.57c2.52,2.52,5.69,3.78,9.51,3.78s6.98-1.26,9.46-3.78c2.48-2.52,3.73-5.75,3.73-9.7s-1.24-7.18-3.73-9.7c-2.48-2.52-5.64-3.78-9.46-3.78s-6.99,1.26-9.51,3.78c-2.52,2.52-3.78,5.75-3.78,9.7s1.26,7.18,3.78,9.7Z"/><path class="cls-1" d="M66.61,15.2c-2.04,0-3.81-.75-5.3-2.25-1.5-1.5-2.25-3.26-2.25-5.3s.75-3.82,2.25-5.35c1.5-1.53,3.26-2.29,5.3-2.29s3.9,.76,5.4,2.29c1.5,1.53,2.25,3.31,2.25,5.35s-.75,3.81-2.25,5.3c-1.5,1.5-3.3,2.25-5.4,2.25Zm-6.12,54.57V21.98h12.33v47.78h-12.33Z"/><path class="cls-1" d="M146.22,15.2c-2.04,0-3.81-.75-5.3-2.25-1.5-1.5-2.25-3.26-2.25-5.3s.75-3.82,2.25-5.35c1.5-1.53,3.26-2.29,5.3-2.29s3.9,.76,5.4,2.29c1.5,1.53,2.25,3.31,2.25,5.35s-.75,3.81-2.25,5.3c-1.5,1.5-3.3,2.25-5.4,2.25Zm-6.12,54.57V21.98h12.33v47.78h-12.33Z"/><path class="cls-1" d="M189.13,33.83h-10.8v19.88c0,1.66,.41,2.87,1.24,3.63,.83,.76,2.04,1.2,3.63,1.29,1.59,.1,3.57,.08,5.92-.05v11.18c-8.47,.96-14.45,.16-17.92-2.39-3.47-2.55-5.21-7.1-5.21-13.67v-19.88h-8.31v-11.85h8.31V12.33l12.33-3.73v13.38h10.8v11.85Z"/><path class="cls-1" d="M230.8,21.98h12.33v47.78h-12.33v-5.64c-3.7,4.65-8.89,6.98-15.58,6.98s-11.84-2.44-16.39-7.31c-4.56-4.87-6.83-10.85-6.83-17.92s2.28-13.04,6.83-17.92c4.55-4.87,10.02-7.31,16.39-7.31,6.69,0,11.88,2.33,15.58,6.98v-5.64Zm-22.75,33.59c2.48,2.52,5.64,3.78,9.46,3.78s6.99-1.26,9.51-3.78c2.52-2.52,3.77-5.75,3.77-9.7s-1.26-7.18-3.77-9.7c-2.52-2.52-5.69-3.78-9.51-3.78s-6.98,1.26-9.46,3.78-3.73,5.75-3.73,9.7,1.24,7.18,3.73,9.7Z"/><path class="cls-1" d="M252.39,69.77V0h12.33V69.77h-12.33Z"/><path class="cls-1" d="M317.19,20.64c6.43,0,11.93,2.44,16.49,7.31,4.55,4.87,6.83,10.85,6.83,17.92s-2.28,13.05-6.83,17.92c-4.56,4.87-10.05,7.31-16.49,7.31s-11.85-2.33-15.48-6.98v5.64h-12.33V0h12.33V27.62c3.63-4.65,8.79-6.98,15.48-6.98Zm-11.76,34.93c2.49,2.52,5.64,3.78,9.46,3.78s6.99-1.26,9.51-3.78c2.52-2.52,3.78-5.75,3.78-9.7s-1.26-7.18-3.78-9.7c-2.52-2.52-5.69-3.78-9.51-3.78s-6.98,1.26-9.46,3.78c-2.48,2.52-3.73,5.75-3.73,9.7s1.24,7.18,3.73,9.7Z"/><path class="cls-1" d="M383.61,21.98h12.33v47.78h-12.33v-5.64c-3.69,4.65-8.89,6.98-15.58,6.98s-11.84-2.44-16.39-7.31c-4.56-4.87-6.83-10.85-6.83-17.92s2.28-13.04,6.83-17.92c4.56-4.87,10.02-7.31,16.39-7.31,6.69,0,11.88,2.33,15.58,6.98v-5.64Zm-22.75,33.59c2.49,2.52,5.64,3.78,9.46,3.78s6.99-1.26,9.51-3.78c2.52-2.52,3.77-5.75,3.77-9.7s-1.26-7.18-3.77-9.7c-2.52-2.52-5.69-3.78-9.51-3.78s-6.98,1.26-9.46,3.78c-2.48,2.52-3.73,5.75-3.73,9.7s1.24,7.18,3.73,9.7Z"/><path class="cls-1" d="M416.2,35.55c0,1.28,.84,2.31,2.53,3.11,1.69,.8,3.74,1.5,6.16,2.1,2.42,.61,4.84,1.37,7.26,2.29,2.42,.92,4.48,2.47,6.16,4.63,1.69,2.17,2.53,4.87,2.53,8.12,0,4.91-1.83,8.68-5.5,11.32-3.66,2.64-8.24,3.97-13.71,3.97-9.81,0-16.5-3.79-20.07-11.37l10.7-6.02c1.4,4.14,4.52,6.21,9.37,6.21,4.4,0,6.59-1.37,6.59-4.11,0-1.27-.84-2.31-2.53-3.11-1.69-.8-3.74-1.51-6.16-2.15-2.42-.64-4.84-1.43-7.26-2.39-2.42-.96-4.48-2.47-6.16-4.54-1.69-2.07-2.53-4.67-2.53-7.79,0-4.71,1.73-8.42,5.21-11.13,3.47-2.71,7.79-4.06,12.95-4.06,3.89,0,7.42,.88,10.61,2.63s5.7,4.25,7.55,7.5l-10.51,5.73c-1.53-3.25-4.08-4.87-7.65-4.87-1.59,0-2.92,.35-3.97,1.05-1.05,.7-1.58,1.66-1.58,2.87Z"/><path class="cls-1" d="M456.62,50.94c1.66,5.99,6.15,8.98,13.47,8.98,4.72,0,8.28-1.59,10.7-4.78l9.94,5.73c-4.72,6.82-11.66,10.23-20.83,10.23-7.9,0-14.24-2.39-19.02-7.17-4.78-4.78-7.17-10.8-7.17-18.06s2.36-13.2,7.07-18.01c4.71-4.81,10.77-7.22,18.16-7.22,7.01,0,12.79,2.42,17.35,7.26,4.55,4.84,6.83,10.83,6.83,17.97,0,1.59-.16,3.28-.48,5.07h-36.03Zm-.19-9.56h24.37c-.7-3.25-2.15-5.67-4.35-7.26-2.2-1.59-4.7-2.39-7.5-2.39-3.31,0-6.05,.84-8.22,2.53-2.17,1.69-3.6,4.06-4.3,7.12Z"/><g><path class="cls-1" d="M124.11,29.67c-3.06-3.04-6.53-5.19-10.39-6.42-.21-.06-.41-.13-.61-.19-1.57-.46-3.21-.77-4.91-.94-.22-.02-.43-.04-.64-.05-.04,0-.08,0-.12,0-.23-.02-.47-.03-.7-.04-.17,0-.33-.02-.5-.02-.11,0-.22,0-.33,0-.23,0-.47,0-.7,0s-.47,0-.7,0c-3.45,.07-6.65,.71-9.59,1.91,0,0-.02,0-.03,.01-3.13,1.28-5.97,3.2-8.52,5.75-5.12,5.12-7.69,11.4-7.69,18.84s2.56,13.72,7.69,18.84c5.13,5.12,11.41,7.69,18.84,7.69s13.73-2.56,18.89-7.69c5.16-5.13,7.74-11.41,7.74-18.84s-2.58-13.72-7.74-18.84Zm-9.15,28.79c-2.61,2.61-5.86,3.92-9.74,3.92s-7.12-1.3-9.7-3.92c-2.58-2.61-3.87-5.93-3.87-9.95s1.28-7.33,3.87-9.95c2.58-2.61,5.81-3.92,9.7-3.92s7.13,1.31,9.74,3.92c2.61,2.61,3.92,5.93,3.92,9.95s-1.31,7.34-3.92,9.95Z"/><path class="cls-1" d="M118.08,75.04c0,3.79-1.23,6.9-3.68,9.36-2.47,2.46-5.53,3.7-9.18,3.7s-6.7-1.24-9.12-3.7c-2.4-2.43-3.61-5.51-3.64-9.26l-12.2,.1c.04,6.92,2.46,12.75,7.24,17.53,4.83,4.81,10.73,7.22,17.72,7.22s12.93-2.41,17.78-7.22c4.85-4.83,7.28-10.73,7.28-17.74h-12.2Z"/></g></g></g></svg>